solid fingerTip
facet normal 0.0 -1.0 0.0
  outer loop
    vertex 0.02007 0.0 0.003017023822327242
    vertex 0.0 0.0 0.0
    vertex 0.02007 0.0 0.0
  endloop
endfacet
facet normal 0.0 -1.0 0.0
  outer loop
    vertex 0.0 0.0 0.0
    vertex 0.02007 0.0 0.003017023822327242
    vertex 0.0 0.0 0.003017023822327242
  endloop
endfacet
facet normal -1.0 0.0 0.0
  outer loop
    vertex 0.0 0.052979999999999965 0.003017023822327242
    vertex 0.0 0.0 0.0
    vertex 0.0 0.0 0.003017023822327242
  endloop
endfacet
facet normal -1.0 0.0 0.0
  outer loop
    vertex 0.0 0.0 0.0
    vertex 0.0 0.052979999999999965 0.003017023822327242
    vertex 0.0 0.052979999999999965 0.0
  endloop
endfacet
facet normal -0.0 1.0 -0.0
  outer loop
    vertex 0.0 0.052979999999999965 0.003017023822327242
    vertex 0.02007 0.052979999999999965 0.0
    vertex 0.0 0.052979999999999965 0.0
  endloop
endfacet
facet normal -0.0 1.0 -0.0
  outer loop
    vertex 0.02007 0.052979999999999965 0.0
    vertex 0.0 0.052979999999999965 0.003017023822327242
    vertex 0.02007 0.052979999999999965 0.003017023822327242
  endloop
endfacet
facet normal 1.0 -0.0 -0.0
  outer loop
    vertex 0.02007 0.052979999999999965 0.0
    vertex 0.02007 0.0 0.003017023822327242
    vertex 0.02007 0.0 0.0
  endloop
endfacet
facet normal 1.0 -0.0 -0.0
  outer loop
    vertex 0.02007 0.0 0.003017023822327242
    vertex 0.02007 0.052979999999999965 0.0
    vertex 0.02007 0.052979999999999965 0.003017023822327242
  endloop
endfacet
facet normal -0.0 -0.0 1.0
  outer loop
    vertex 0.0 0.0 0.003017023822327242
    vertex 0.008904908259130031 0.026142435786203 0.0030170238223272447
    vertex 0.0 0.052979999999999965 0.003017023822327242
  endloop
endfacet
facet normal -0.0 -0.0 1.0
  outer loop
    vertex 0.008904908259130031 0.026142435786203 0.0030170238223272447
    vertex 0.0 0.0 0.003017023822327242
    vertex 0.009016796732335216 0.025872313116717817 0.0030170238223272447
  endloop
endfacet
facet normal -0.0 -0.0 1.0
  outer loop
    vertex 0.009016796732335216 0.025872313116717817 0.0030170238223272447
    vertex 0.0 0.0 0.003017023822327242
    vertex 0.02007 0.0 0.003017023822327242
  endloop
endfacet
facet normal -0.0 -0.0 1.0
  outer loop
    vertex 0.0 0.052979999999999965 0.003017023822327242
    vertex 0.008904908259130031 0.026142435786203 0.0030170238223272447
    vertex 0.008866745184573787 0.026432313116717822 0.0030170238223272447
  endloop
endfacet
facet normal -0.0 -0.0 1.0
  outer loop
    vertex 0.009016796732335216 0.025872313116717817 0.0030170238223272447
    vertex 0.02007 0.0 0.003017023822327242
    vertex 0.009194785589644856 0.025640353521788888 0.0030170238223272447
  endloop
endfacet
facet normal -0.0 -0.0 1.0
  outer loop
    vertex 0.009194785589644856 0.025640353521788888 0.0030170238223272447
    vertex 0.02007 0.0 0.003017023822327242
    vertex 0.009426745184573789 0.025462364664479247 0.0030170238223272447
  endloop
endfacet
facet normal -0.0 -0.0 1.0
  outer loop
    vertex 0.009426745184573789 0.025462364664479247 0.0030170238223272447
    vertex 0.02007 0.0 0.003017023822327242
    vertex 0.009696867854058966 0.02535047619127406 0.0030170238223272447
  endloop
endfacet
facet normal -0.0 -0.0 1.0
  outer loop
    vertex 0.009696867854058966 0.02535047619127406 0.0030170238223272447
    vertex 0.02007 0.0 0.003017023822327242
    vertex 0.009986745184573789 0.02531231311671782 0.0030170238223272447
  endloop
endfacet
facet normal -0.0 -0.0 1.0
  outer loop
    vertex 0.009986745184573789 0.02531231311671782 0.0030170238223272447
    vertex 0.02007 0.0 0.003017023822327242
    vertex 0.010276622515088613 0.02535047619127406 0.0030170238223272447
  endloop
endfacet
facet normal -0.0 -0.0 1.0
  outer loop
    vertex 0.010276622515088613 0.02535047619127406 0.0030170238223272447
    vertex 0.02007 0.0 0.003017023822327242
    vertex 0.01054674518457379 0.025462364664479247 0.0030170238223272447
  endloop
endfacet
facet normal -0.0 -0.0 1.0
  outer loop
    vertex 0.01054674518457379 0.025462364664479247 0.0030170238223272447
    vertex 0.02007 0.0 0.003017023822327242
    vertex 0.010778704779502723 0.025640353521788888 0.0030170238223272447
  endloop
endfacet
facet normal -0.0 -0.0 1.0
  outer loop
    vertex 0.010778704779502723 0.025640353521788888 0.0030170238223272447
    vertex 0.02007 0.0 0.003017023822327242
    vertex 0.010956693636812362 0.025872313116717824 0.0030170238223272447
  endloop
endfacet
facet normal -0.0 -0.0 1.0
  outer loop
    vertex 0.010956693636812362 0.025872313116717824 0.0030170238223272447
    vertex 0.02007 0.0 0.003017023822327242
    vertex 0.011068582110017546 0.026142435786203 0.0030170238223272447
  endloop
endfacet
facet normal -0.0 -0.0 1.0
  outer loop
    vertex 0.011068582110017546 0.026142435786203 0.0030170238223272447
    vertex 0.02007 0.0 0.003017023822327242
    vertex 0.01110674518457379 0.026432313116717822 0.0030170238223272447
  endloop
endfacet
facet normal -0.0 -0.0 1.0
  outer loop
    vertex 0.0 0.052979999999999965 0.003017023822327242
    vertex 0.009016796732335216 0.02699231311671782 0.0030170238223272447
    vertex 0.02007 0.052979999999999965 0.003017023822327242
  endloop
endfacet
facet normal -0.0 -0.0 1.0
  outer loop
    vertex 0.009016796732335216 0.02699231311671782 0.0030170238223272447
    vertex 0.0 0.052979999999999965 0.003017023822327242
    vertex 0.008904908259130031 0.026722190447232643 0.0030170238223272447
  endloop
endfacet
facet normal -0.0 -0.0 1.0
  outer loop
    vertex 0.008904908259130031 0.026722190447232643 0.0030170238223272447
    vertex 0.0 0.052979999999999965 0.003017023822327242
    vertex 0.008866745184573787 0.026432313116717822 0.0030170238223272447
  endloop
endfacet
facet normal -0.0 -0.0 1.0
  outer loop
    vertex 0.02007 0.052979999999999965 0.003017023822327242
    vertex 0.009016796732335216 0.02699231311671782 0.0030170238223272447
    vertex 0.009194785589644854 0.027224272711646753 0.0030170238223272447
  endloop
endfacet
facet normal -0.0 -0.0 1.0
  outer loop
    vertex 0.02007 0.052979999999999965 0.003017023822327242
    vertex 0.009194785589644854 0.027224272711646753 0.0030170238223272447
    vertex 0.009426745184573789 0.027402261568956393 0.0030170238223272447
  endloop
endfacet
facet normal -0.0 -0.0 1.0
  outer loop
    vertex 0.02007 0.052979999999999965 0.003017023822327242
    vertex 0.009426745184573789 0.027402261568956393 0.0030170238223272447
    vertex 0.009696867854058966 0.02751415004216158 0.0030170238223272447
  endloop
endfacet
facet normal -0.0 -0.0 1.0
  outer loop
    vertex 0.02007 0.052979999999999965 0.003017023822327242
    vertex 0.009696867854058966 0.02751415004216158 0.0030170238223272447
    vertex 0.009986745184573789 0.02755231311671782 0.0030170238223272447
  endloop
endfacet
facet normal -0.0 -0.0 1.0
  outer loop
    vertex 0.02007 0.052979999999999965 0.003017023822327242
    vertex 0.009986745184573789 0.02755231311671782 0.0030170238223272447
    vertex 0.010276622515088612 0.02751415004216158 0.0030170238223272447
  endloop
endfacet
facet normal -0.0 -0.0 1.0
  outer loop
    vertex 0.02007 0.052979999999999965 0.003017023822327242
    vertex 0.010276622515088612 0.02751415004216158 0.0030170238223272447
    vertex 0.01054674518457379 0.027402261568956393 0.0030170238223272447
  endloop
endfacet
facet normal -0.0 -0.0 1.0
  outer loop
    vertex 0.02007 0.052979999999999965 0.003017023822327242
    vertex 0.01054674518457379 0.027402261568956393 0.0030170238223272447
    vertex 0.010778704779502723 0.027224272711646753 0.0030170238223272447
  endloop
endfacet
facet normal -0.0 -0.0 1.0
  outer loop
    vertex 0.02007 0.052979999999999965 0.003017023822327242
    vertex 0.010778704779502723 0.027224272711646753 0.0030170238223272447
    vertex 0.010956693636812362 0.026992313116717823 0.0030170238223272447
  endloop
endfacet
facet normal -0.0 -0.0 1.0
  outer loop
    vertex 0.02007 0.052979999999999965 0.003017023822327242
    vertex 0.010956693636812362 0.026992313116717823 0.0030170238223272447
    vertex 0.011068582110017546 0.026722190447232647 0.0030170238223272447
  endloop
endfacet
facet normal -0.0 -0.0 1.0
  outer loop
    vertex 0.02007 0.052979999999999965 0.003017023822327242
    vertex 0.011068582110017546 0.026722190447232647 0.0030170238223272447
    vertex 0.01110674518457379 0.026432313116717822 0.0030170238223272447
  endloop
endfacet
facet normal -0.0 -0.0 1.0
  outer loop
    vertex 0.02007 0.052979999999999965 0.003017023822327242
    vertex 0.01110674518457379 0.026432313116717822 0.0030170238223272447
    vertex 0.02007 0.0 0.003017023822327242
  endloop
endfacet
facet normal 0.0 0.0 -1.0
  outer loop
    vertex 0.0 0.052979999999999965 0.0
    vertex 0.008904908259130031 0.026722190447232643 9.999999999999911e-06
    vertex 0.0 0.0 0.0
  endloop
endfacet
facet normal 0.0 0.0 -1.0
  outer loop
    vertex 0.008904908259130031 0.026722190447232643 9.999999999999911e-06
    vertex 0.0 0.052979999999999965 0.0
    vertex 0.009016796732335216 0.02699231311671782 9.999999999999911e-06
  endloop
endfacet
facet normal 0.0 0.0 -1.0
  outer loop
    vertex 0.009016796732335216 0.02699231311671782 9.999999999999911e-06
    vertex 0.0 0.052979999999999965 0.0
    vertex 0.02007 0.052979999999999965 0.0
  endloop
endfacet
facet normal 0.0 0.0 -1.0
  outer loop
    vertex 0.0 0.0 0.0
    vertex 0.008904908259130031 0.026722190447232643 9.999999999999911e-06
    vertex 0.008866745184573787 0.026432313116717822 9.999999999999911e-06
  endloop
endfacet
facet normal 0.0 0.0 -1.0
  outer loop
    vertex 0.009016796732335216 0.02699231311671782 9.999999999999911e-06
    vertex 0.02007 0.052979999999999965 0.0
    vertex 0.009194785589644854 0.027224272711646753 9.999999999999911e-06
  endloop
endfacet
facet normal 0.0 0.0 -1.0
  outer loop
    vertex 0.009194785589644854 0.027224272711646753 9.999999999999911e-06
    vertex 0.02007 0.052979999999999965 0.0
    vertex 0.009426745184573789 0.027402261568956393 9.999999999999911e-06
  endloop
endfacet
facet normal 0.0 0.0 -1.0
  outer loop
    vertex 0.009426745184573789 0.027402261568956393 9.999999999999911e-06
    vertex 0.02007 0.052979999999999965 0.0
    vertex 0.009696867854058966 0.02751415004216158 9.999999999999911e-06
  endloop
endfacet
facet normal 0.0 0.0 -1.0
  outer loop
    vertex 0.009696867854058966 0.02751415004216158 9.999999999999911e-06
    vertex 0.02007 0.052979999999999965 0.0
    vertex 0.009986745184573789 0.02755231311671782 9.999999999999911e-06
  endloop
endfacet
facet normal 0.0 0.0 -1.0
  outer loop
    vertex 0.009986745184573789 0.02755231311671782 9.999999999999911e-06
    vertex 0.02007 0.052979999999999965 0.0
    vertex 0.010276622515088612 0.02751415004216158 9.999999999999911e-06
  endloop
endfacet
facet normal 0.0 0.0 -1.0
  outer loop
    vertex 0.010276622515088612 0.02751415004216158 9.999999999999911e-06
    vertex 0.02007 0.052979999999999965 0.0
    vertex 0.01054674518457379 0.027402261568956393 9.999999999999911e-06
  endloop
endfacet
facet normal 0.0 0.0 -1.0
  outer loop
    vertex 0.01054674518457379 0.027402261568956393 9.999999999999911e-06
    vertex 0.02007 0.052979999999999965 0.0
    vertex 0.010778704779502723 0.027224272711646753 9.999999999999911e-06
  endloop
endfacet
facet normal 0.0 0.0 -1.0
  outer loop
    vertex 0.010778704779502723 0.027224272711646753 9.999999999999911e-06
    vertex 0.02007 0.052979999999999965 0.0
    vertex 0.010956693636812362 0.026992313116717823 9.999999999999911e-06
  endloop
endfacet
facet normal 0.0 0.0 -1.0
  outer loop
    vertex 0.010956693636812362 0.026992313116717823 9.999999999999911e-06
    vertex 0.02007 0.052979999999999965 0.0
    vertex 0.011068582110017546 0.026722190447232647 9.999999999999911e-06
  endloop
endfacet
facet normal 0.0 0.0 -1.0
  outer loop
    vertex 0.011068582110017546 0.026722190447232647 9.999999999999911e-06
    vertex 0.02007 0.052979999999999965 0.0
    vertex 0.01110674518457379 0.026432313116717822 9.999999999999911e-06
  endloop
endfacet
facet normal 0.0 0.0 -1.0
  outer loop
    vertex 0.0 0.0 0.0
    vertex 0.009016796732335216 0.025872313116717817 9.999999999999911e-06
    vertex 0.02007 0.0 0.0
  endloop
endfacet
facet normal 0.0 0.0 -1.0
  outer loop
    vertex 0.009016796732335216 0.025872313116717817 9.999999999999911e-06
    vertex 0.0 0.0 0.0
    vertex 0.008904908259130031 0.026142435786203 9.999999999999911e-06
  endloop
endfacet
facet normal 0.0 0.0 -1.0
  outer loop
    vertex 0.008904908259130031 0.026142435786203 9.999999999999911e-06
    vertex 0.0 0.0 0.0
    vertex 0.008866745184573787 0.026432313116717822 9.999999999999911e-06
  endloop
endfacet
facet normal 0.0 0.0 -1.0
  outer loop
    vertex 0.02007 0.0 0.0
    vertex 0.009016796732335216 0.025872313116717817 9.999999999999911e-06
    vertex 0.009194785589644856 0.025640353521788888 9.999999999999911e-06
  endloop
endfacet
facet normal 0.0 0.0 -1.0
  outer loop
    vertex 0.02007 0.0 0.0
    vertex 0.009194785589644856 0.025640353521788888 9.999999999999911e-06
    vertex 0.009426745184573789 0.025462364664479247 9.999999999999911e-06
  endloop
endfacet
facet normal 0.0 0.0 -1.0
  outer loop
    vertex 0.02007 0.0 0.0
    vertex 0.009426745184573789 0.025462364664479247 9.999999999999911e-06
    vertex 0.009696867854058966 0.02535047619127406 9.999999999999911e-06
  endloop
endfacet
facet normal 0.0 0.0 -1.0
  outer loop
    vertex 0.02007 0.0 0.0
    vertex 0.009696867854058966 0.02535047619127406 9.999999999999911e-06
    vertex 0.009986745184573789 0.02531231311671782 9.999999999999911e-06
  endloop
endfacet
facet normal 0.0 0.0 -1.0
  outer loop
    vertex 0.02007 0.0 0.0
    vertex 0.009986745184573789 0.02531231311671782 9.999999999999911e-06
    vertex 0.010276622515088613 0.02535047619127406 9.999999999999911e-06
  endloop
endfacet
facet normal 0.0 0.0 -1.0
  outer loop
    vertex 0.02007 0.0 0.0
    vertex 0.010276622515088613 0.02535047619127406 9.999999999999911e-06
    vertex 0.01054674518457379 0.025462364664479247 9.999999999999911e-06
  endloop
endfacet
facet normal 0.0 0.0 -1.0
  outer loop
    vertex 0.02007 0.0 0.0
    vertex 0.01054674518457379 0.025462364664479247 9.999999999999911e-06
    vertex 0.010778704779502723 0.025640353521788888 9.999999999999911e-06
  endloop
endfacet
facet normal 0.0 0.0 -1.0
  outer loop
    vertex 0.02007 0.0 0.0
    vertex 0.010778704779502723 0.025640353521788888 9.999999999999911e-06
    vertex 0.010956693636812362 0.025872313116717824 9.999999999999911e-06
  endloop
endfacet
facet normal 0.0 0.0 -1.0
  outer loop
    vertex 0.02007 0.0 0.0
    vertex 0.010956693636812362 0.025872313116717824 9.999999999999911e-06
    vertex 0.011068582110017546 0.026142435786203 9.999999999999911e-06
  endloop
endfacet
facet normal 0.0 0.0 -1.0
  outer loop
    vertex 0.02007 0.0 0.0
    vertex 0.011068582110017546 0.026142435786203 9.999999999999911e-06
    vertex 0.01110674518457379 0.026432313116717822 9.999999999999911e-06
  endloop
endfacet
facet normal 0.0 0.0 -1.0
  outer loop
    vertex 0.02007 0.0 0.0
    vertex 0.01110674518457379 0.026432313116717822 9.999999999999911e-06
    vertex 0.02007 0.052979999999999965 0.0
  endloop
endfacet
facet normal 0.5000000000000049 0.8660254037844358 1.4472823674084304e-32
  outer loop
    vertex 0.009426745184573789 0.025462364664479247 0.0030170238223272447
    vertex 0.009696867854058966 0.02535047619127406 9.999999999999911e-06
    vertex 0.009426745184573789 0.025462364664479247 9.999999999999911e-06
  endloop
endfacet
facet normal 0.25881904510251835 0.9659258262890689 2.417430463992134e-19
  outer loop
    vertex 0.009696867854058966 0.02535047619127406 9.999999999999911e-06
    vertex 0.009426745184573789 0.025462364664479247 0.0030170238223272447
    vertex 0.009696867854058966 0.02535047619127406 0.0030170238223272447
  endloop
endfacet
facet normal 0.25881904510251835 0.9659258262890689 2.417430463992134e-19
  outer loop
    vertex 0.009696867854058966 0.02535047619127406 0.0030170238223272447
    vertex 0.009986745184573789 0.02531231311671782 9.999999999999911e-06
    vertex 0.009696867854058966 0.02535047619127406 9.999999999999911e-06
  endloop
endfacet
facet normal 0.0 1.0 2.4174304639911054e-19
  outer loop
    vertex 0.009986745184573789 0.02531231311671782 9.999999999999911e-06
    vertex 0.009696867854058966 0.02535047619127406 0.0030170238223272447
    vertex 0.009986745184573789 0.02531231311671782 0.0030170238223272447
  endloop
endfacet
facet normal 0.0 1.0 2.4174304639911054e-19
  outer loop
    vertex 0.009986745184573789 0.02531231311671782 0.0030170238223272447
    vertex 0.010276622515088613 0.02535047619127406 9.999999999999911e-06
    vertex 0.009986745184573789 0.02531231311671782 9.999999999999911e-06
  endloop
endfacet
facet normal -0.25881904510251835 0.9659258262890689 1.0244032513864186e-31
  outer loop
    vertex 0.010276622515088613 0.02535047619127406 9.999999999999911e-06
    vertex 0.009986745184573789 0.02531231311671782 0.0030170238223272447
    vertex 0.010276622515088613 0.02535047619127406 0.0030170238223272447
  endloop
endfacet
facet normal -0.25881904510251835 0.9659258262890689 1.0244032513864186e-31
  outer loop
    vertex 0.010276622515088613 0.02535047619127406 0.0030170238223272447
    vertex 0.01054674518457379 0.025462364664479247 9.999999999999911e-06
    vertex 0.010276622515088613 0.02535047619127406 9.999999999999911e-06
  endloop
endfacet
facet normal -0.5000000000000036 0.8660254037844365 -2.4021358106245202e-33
  outer loop
    vertex 0.01054674518457379 0.025462364664479247 9.999999999999911e-06
    vertex 0.010276622515088613 0.02535047619127406 0.0030170238223272447
    vertex 0.01054674518457379 0.025462364664479247 0.0030170238223272447
  endloop
endfacet
facet normal -0.5000000000000036 0.8660254037844365 -2.4021358106245202e-33
  outer loop
    vertex 0.01054674518457379 0.025462364664479247 0.0030170238223272447
    vertex 0.010778704779502723 0.025640353521788888 9.999999999999911e-06
    vertex 0.01054674518457379 0.025462364664479247 9.999999999999911e-06
  endloop
endfacet
facet normal -0.7071067811865515 0.7071067811865437 -7.73770325813556e-19
  outer loop
    vertex 0.010778704779502723 0.025640353521788888 9.999999999999911e-06
    vertex 0.01054674518457379 0.025462364664479247 0.0030170238223272447
    vertex 0.010778704779502723 0.025640353521788888 0.0030170238223272447
  endloop
endfacet
facet normal -0.8660254037844403 0.499999999999997 1.2730430333125093e-19
  outer loop
    vertex 0.010956693636812362 0.025872313116717824 0.0030170238223272447
    vertex 0.010778704779502723 0.025640353521788888 9.999999999999911e-06
    vertex 0.010778704779502723 0.025640353521788888 0.0030170238223272447
  endloop
endfacet
facet normal -0.7071067811865515 0.7071067811865437 -7.73770325813556e-19
  outer loop
    vertex 0.010778704779502723 0.025640353521788888 9.999999999999911e-06
    vertex 0.010956693636812362 0.025872313116717824 0.0030170238223272447
    vertex 0.010956693636812362 0.025872313116717824 9.999999999999911e-06
  endloop
endfacet
facet normal -0.9659258262890681 0.2588190451025214 1.1556832358072048e-18
  outer loop
    vertex 0.011068582110017546 0.026142435786203 0.0030170238223272447
    vertex 0.010956693636812362 0.025872313116717824 9.999999999999911e-06
    vertex 0.010956693636812362 0.025872313116717824 0.0030170238223272447
  endloop
endfacet
facet normal -0.8660254037844403 0.499999999999997 1.2730430333125093e-19
  outer loop
    vertex 0.010956693636812362 0.025872313116717824 9.999999999999911e-06
    vertex 0.011068582110017546 0.026142435786203 0.0030170238223272447
    vertex 0.011068582110017546 0.026142435786203 9.999999999999911e-06
  endloop
endfacet
facet normal -1.0 1.2742887150775074e-15 2.546086066625031e-19
  outer loop
    vertex 0.01110674518457379 0.026432313116717822 0.0030170238223272447
    vertex 0.011068582110017546 0.026142435786203 9.999999999999911e-06
    vertex 0.011068582110017546 0.026142435786203 0.0030170238223272447
  endloop
endfacet
facet normal -0.9659258262890681 0.2588190451025214 1.1556832358072048e-18
  outer loop
    vertex 0.011068582110017546 0.026142435786203 9.999999999999911e-06
    vertex 0.01110674518457379 0.026432313116717822 0.0030170238223272447
    vertex 0.01110674518457379 0.026432313116717822 9.999999999999911e-06
  endloop
endfacet
facet normal -0.9659258262890684 -0.25881904510252024 9.01074629144702e-19
  outer loop
    vertex 0.011068582110017546 0.026722190447232647 0.0030170238223272447
    vertex 0.01110674518457379 0.026432313116717822 9.999999999999911e-06
    vertex 0.01110674518457379 0.026432313116717822 0.0030170238223272447
  endloop
endfacet
facet normal -1.0 1.2742887150775074e-15 2.546086066625031e-19
  outer loop
    vertex 0.01110674518457379 0.026432313116717822 9.999999999999911e-06
    vertex 0.011068582110017546 0.026722190447232647 0.0030170238223272447
    vertex 0.011068582110017546 0.026722190447232647 9.999999999999911e-06
  endloop
endfacet
facet normal -0.8660254037844363 -0.5000000000000039 1.67484495495819e-18
  outer loop
    vertex 0.010956693636812362 0.026992313116717823 0.0030170238223272447
    vertex 0.011068582110017546 0.026722190447232647 9.999999999999911e-06
    vertex 0.011068582110017546 0.026722190447232647 0.0030170238223272447
  endloop
endfacet
facet normal -0.9659258262890684 -0.25881904510252024 9.01074629144702e-19
  outer loop
    vertex 0.011068582110017546 0.026722190447232647 9.999999999999911e-06
    vertex 0.010956693636812362 0.026992313116717823 0.0030170238223272447
    vertex 0.010956693636812362 0.026992313116717823 9.999999999999911e-06
  endloop
endfacet
facet normal -0.7071067811865468 -0.7071067811865483 7.73770325813398e-19
  outer loop
    vertex 0.010778704779502723 0.027224272711646753 0.0030170238223272447
    vertex 0.010956693636812362 0.026992313116717823 9.999999999999911e-06
    vertex 0.010956693636812362 0.026992313116717823 0.0030170238223272447
  endloop
endfacet
facet normal -0.8660254037844363 -0.5000000000000039 1.67484495495819e-18
  outer loop
    vertex 0.010956693636812362 0.026992313116717823 9.999999999999911e-06
    vertex 0.010778704779502723 0.027224272711646753 0.0030170238223272447
    vertex 0.010778704779502723 0.027224272711646753 9.999999999999911e-06
  endloop
endfacet
facet normal -0.7071067811865468 -0.7071067811865483 7.73770325813398e-19
  outer loop
    vertex 0.010778704779502723 0.027224272711646753 0.0030170238223272447
    vertex 0.01054674518457379 0.027402261568956393 9.999999999999911e-06
    vertex 0.010778704779502723 0.027224272711646753 9.999999999999911e-06
  endloop
endfacet
facet normal -0.5000000000000041 -0.8660254037844362 -7.464746642041057e-19
  outer loop
    vertex 0.01054674518457379 0.027402261568956393 9.999999999999911e-06
    vertex 0.010778704779502723 0.027224272711646753 0.0030170238223272447
    vertex 0.01054674518457379 0.027402261568956393 0.0030170238223272447
  endloop
endfacet
facet normal -0.5000000000000041 -0.8660254037844362 -7.464746642041057e-19
  outer loop
    vertex 0.01054674518457379 0.027402261568956393 0.0030170238223272447
    vertex 0.010276622515088612 0.02751415004216158 9.999999999999911e-06
    vertex 0.01054674518457379 0.027402261568956393 9.999999999999911e-06
  endloop
endfacet
facet normal -0.25881904510251785 -0.9659258262890691 -1.2428263172656306e-18
  outer loop
    vertex 0.010276622515088612 0.02751415004216158 9.999999999999911e-06
    vertex 0.01054674518457379 0.027402261568956393 0.0030170238223272447
    vertex 0.010276622515088612 0.02751415004216158 0.0030170238223272447
  endloop
endfacet
facet normal -0.25881904510251785 -0.9659258262890691 -1.2428263172656306e-18
  outer loop
    vertex 0.010276622515088612 0.02751415004216158 0.0030170238223272447
    vertex 0.009986745184573789 0.02755231311671782 9.999999999999911e-06
    vertex 0.010276622515088612 0.02751415004216158 9.999999999999911e-06
  endloop
endfacet
facet normal -3.118888463476413e-16 -1.0 -7.38094699460722e-19
  outer loop
    vertex 0.009986745184573789 0.02755231311671782 9.999999999999911e-06
    vertex 0.010276622515088612 0.02751415004216158 0.0030170238223272447
    vertex 0.009986745184573789 0.02755231311671782 0.0030170238223272447
  endloop
endfacet
facet normal -3.118888463476413e-16 -1.0 -7.38094699460722e-19
  outer loop
    vertex 0.009986745184573789 0.02755231311671782 0.0030170238223272447
    vertex 0.009696867854058966 0.02751415004216158 9.999999999999911e-06
    vertex 0.009986745184573789 0.02755231311671782 9.999999999999911e-06
  endloop
endfacet
facet normal 0.25881904510251835 -0.9659258262890689 -2.417430463990085e-19
  outer loop
    vertex 0.009696867854058966 0.02751415004216158 9.999999999999911e-06
    vertex 0.009986745184573789 0.02755231311671782 0.0030170238223272447
    vertex 0.009696867854058966 0.02751415004216158 0.0030170238223272447
  endloop
endfacet
facet normal 0.25881904510251835 -0.9659258262890689 -2.417430463990085e-19
  outer loop
    vertex 0.009696867854058966 0.02751415004216158 0.0030170238223272447
    vertex 0.009426745184573789 0.027402261568956393 9.999999999999911e-06
    vertex 0.009696867854058966 0.02751415004216158 9.999999999999911e-06
  endloop
endfacet
facet normal 0.5000000000000036 -0.8660254037844365 3.134778315879276e-32
  outer loop
    vertex 0.009426745184573789 0.027402261568956393 9.999999999999911e-06
    vertex 0.009696867854058966 0.02751415004216158 0.0030170238223272447
    vertex 0.009426745184573789 0.027402261568956393 0.0030170238223272447
  endloop
endfacet
facet normal 0.5000000000000036 -0.8660254037844365 3.134778315879276e-32
  outer loop
    vertex 0.009426745184573789 0.027402261568956393 0.0030170238223272447
    vertex 0.009194785589644854 0.027224272711646753 9.999999999999911e-06
    vertex 0.009426745184573789 0.027402261568956393 9.999999999999911e-06
  endloop
endfacet
facet normal 0.7071067811865515 -0.7071067811865437 -3.592704041015488e-33
  outer loop
    vertex 0.009194785589644854 0.027224272711646753 9.999999999999911e-06
    vertex 0.009426745184573789 0.027402261568956393 0.0030170238223272447
    vertex 0.009194785589644854 0.027224272711646753 0.0030170238223272447
  endloop
endfacet
facet normal 0.7071067811865515 -0.7071067811865437 -3.592704041015488e-33
  outer loop
    vertex 0.009194785589644854 0.027224272711646753 9.999999999999911e-06
    vertex 0.009016796732335216 0.02699231311671782 0.0030170238223272447
    vertex 0.009016796732335216 0.02699231311671782 9.999999999999911e-06
  endloop
endfacet
facet normal 0.8660254037844403 -0.499999999999997 9.01074629144769e-19
  outer loop
    vertex 0.009016796732335216 0.02699231311671782 0.0030170238223272447
    vertex 0.009194785589644854 0.027224272711646753 9.999999999999911e-06
    vertex 0.009194785589644854 0.027224272711646753 0.0030170238223272447
  endloop
endfacet
facet normal 0.8660254037844403 -0.499999999999997 9.01074629144769e-19
  outer loop
    vertex 0.009016796732335216 0.02699231311671782 9.999999999999911e-06
    vertex 0.008904908259130031 0.026722190447232643 0.0030170238223272447
    vertex 0.008904908259130031 0.026722190447232643 9.999999999999911e-06
  endloop
endfacet
facet normal 0.9659258262890681 -0.2588190451025214 1.1556832358072048e-18
  outer loop
    vertex 0.008904908259130031 0.026722190447232643 0.0030170238223272447
    vertex 0.009016796732335216 0.02699231311671782 9.999999999999911e-06
    vertex 0.009016796732335216 0.02699231311671782 0.0030170238223272447
  endloop
endfacet
facet normal 0.9659258262890681 -0.2588190451025214 1.1556832358072048e-18
  outer loop
    vertex 0.008904908259130031 0.026722190447232643 9.999999999999911e-06
    vertex 0.008866745184573787 0.026432313116717822 0.0030170238223272447
    vertex 0.008866745184573787 0.026432313116717822 9.999999999999911e-06
  endloop
endfacet
facet normal 1.0 0.0 5.092172133250062e-19
  outer loop
    vertex 0.008866745184573787 0.026432313116717822 0.0030170238223272447
    vertex 0.008904908259130031 0.026722190447232643 9.999999999999911e-06
    vertex 0.008904908259130031 0.026722190447232643 0.0030170238223272447
  endloop
endfacet
facet normal 1.0 0.0 5.092172133250062e-19
  outer loop
    vertex 0.008866745184573787 0.026432313116717822 9.999999999999911e-06
    vertex 0.008904908259130031 0.026142435786203 0.0030170238223272447
    vertex 0.008904908259130031 0.026142435786203 9.999999999999911e-06
  endloop
endfacet
facet normal 0.9659258262890691 0.258819045102518 4.0920857160307358e-19
  outer loop
    vertex 0.008904908259130031 0.026142435786203 0.0030170238223272447
    vertex 0.008866745184573787 0.026432313116717822 9.999999999999911e-06
    vertex 0.008866745184573787 0.026432313116717822 0.0030170238223272447
  endloop
endfacet
facet normal 0.9659258262890691 0.258819045102518 4.0920857160307358e-19
  outer loop
    vertex 0.008904908259130031 0.026142435786203 9.999999999999911e-06
    vertex 0.009016796732335216 0.025872313116717817 0.0030170238223272447
    vertex 0.009016796732335216 0.025872313116717817 9.999999999999911e-06
  endloop
endfacet
facet normal 0.8660254037844382 0.5000000000000008 9.283702907540588e-19
  outer loop
    vertex 0.009016796732335216 0.025872313116717817 0.0030170238223272447
    vertex 0.008904908259130031 0.026142435786203 9.999999999999911e-06
    vertex 0.008904908259130031 0.026142435786203 0.0030170238223272447
  endloop
endfacet
facet normal 0.8660254037844382 0.5000000000000008 9.283702907540588e-19
  outer loop
    vertex 0.009016796732335216 0.025872313116717817 9.999999999999911e-06
    vertex 0.009194785589644856 0.025640353521788888 0.0030170238223272447
    vertex 0.009194785589644856 0.025640353521788888 9.999999999999911e-06
  endloop
endfacet
facet normal 0.7071067811865468 0.7071067811865483 7.73770325813398e-19
  outer loop
    vertex 0.009194785589644856 0.025640353521788888 0.0030170238223272447
    vertex 0.009016796732335216 0.025872313116717817 9.999999999999911e-06
    vertex 0.009016796732335216 0.025872313116717817 0.0030170238223272447
  endloop
endfacet
facet normal 0.7071067811865468 0.7071067811865483 7.73770325813398e-19
  outer loop
    vertex 0.009194785589644856 0.025640353521788888 0.0030170238223272447
    vertex 0.009426745184573789 0.025462364664479247 9.999999999999911e-06
    vertex 0.009194785589644856 0.025640353521788888 9.999999999999911e-06
  endloop
endfacet
facet normal 0.5000000000000049 0.8660254037844358 1.4472823674084304e-32
  outer loop
    vertex 0.009426745184573789 0.025462364664479247 9.999999999999911e-06
    vertex 0.009194785589644856 0.025640353521788888 0.0030170238223272447
    vertex 0.009426745184573789 0.025462364664479247 0.0030170238223272447
  endloop
endfacet
endsolid fingerTip
